<svg xmlns="http://www.w3.org/2000/svg" viewBox="0 0 680 460" width="680">
<style>
  text{font-family:'Segoe UI',Roboto,Helvetica,Arial,sans-serif}
  .th{fill:#141a29;font-size:14px;font-weight:600}
  .ts{fill:#5b6472;font-size:12px}
  .c-blue{fill:#E6F1FB;stroke:#185FA5}
  .c-gray{fill:#F1EFE8;stroke:#5F5E5A}
  .c-green{fill:#EAF3DE;stroke:#3B6D11}
</style>
<rect x="0" y="0" width="680" height="460" fill="#f6f8fc"/>
<defs><marker id="arrow" viewBox="0 0 10 10" refX="8" refY="5" markerWidth="6" markerHeight="6" orient="auto-start-reverse"><path d="M2 1L8 5L2 9" fill="none" stroke="#475569" stroke-width="1.5" stroke-linecap="round" stroke-linejoin="round"/></marker></defs>

<rect class="c-blue" x="30" y="28" width="140" height="36" rx="8" stroke-width="0.5"/>
<text class="th" x="100" y="51" text-anchor="middle">kubectl / admin</text>

<rect x="25" y="76" width="630" height="132" rx="12" fill="none" stroke="#475569" stroke-width="1" stroke-dasharray="5 4" opacity="0.55"/>
<text class="ts" x="38" y="93" text-anchor="start">Plan de controle (control plane) - le cerveau</text>

<rect class="c-blue" x="250" y="100" width="180" height="40" rx="8" stroke-width="0.5"/>
<text class="th" x="340" y="121" text-anchor="middle">kube-apiserver</text>
<text class="ts" x="340" y="136" text-anchor="middle">hub central</text>

<rect class="c-blue" x="45" y="154" width="145" height="42" rx="8" stroke-width="0.5"/>
<text class="th" x="117" y="175" text-anchor="middle">etcd</text>
<text class="ts" x="117" y="190" text-anchor="middle">etat du cluster</text>
<rect class="c-blue" x="268" y="154" width="145" height="42" rx="8" stroke-width="0.5"/>
<text class="th" x="340" y="175" text-anchor="middle">kube-scheduler</text>
<text class="ts" x="340" y="190" text-anchor="middle">place les pods</text>
<rect class="c-blue" x="468" y="154" width="165" height="42" rx="8" stroke-width="0.5"/>
<text class="th" x="550" y="175" text-anchor="middle">controller-manager</text>
<text class="ts" x="550" y="190" text-anchor="middle">reconcilie</text>

<line x1="310" y1="140" x2="135" y2="152" stroke="#475569" stroke-width="1"/>
<line x1="340" y1="140" x2="340" y2="152" stroke="#475569" stroke-width="1"/>
<line x1="375" y1="140" x2="545" y2="152" stroke="#475569" stroke-width="1"/>
<line x1="168" y1="48" x2="298" y2="102" stroke="#475569" stroke-width="1" marker-end="url(#arrow)"/>

<rect x="40" y="250" width="280" height="192" rx="12" fill="none" stroke="#475569" stroke-width="1" stroke-dasharray="5 4" opacity="0.55"/>
<text class="ts" x="53" y="267" text-anchor="start">Noeud worker 1</text>
<rect class="c-gray" x="55" y="278" width="120" height="34" rx="7" stroke-width="0.5"/>
<text class="ts" x="115" y="299" text-anchor="middle">kubelet</text>
<rect class="c-gray" x="188" y="278" width="118" height="34" rx="7" stroke-width="0.5"/>
<text class="ts" x="247" y="299" text-anchor="middle">kube-proxy</text>
<rect class="c-gray" x="55" y="326" width="251" height="30" rx="7" stroke-width="0.5"/>
<text class="ts" x="180" y="345" text-anchor="middle">container runtime (containerd)</text>
<rect class="c-green" x="55" y="372" width="120" height="48" rx="7" stroke-width="0.5"/>
<text class="th" x="115" y="392" text-anchor="middle">Pod</text>
<text class="ts" x="115" y="408" text-anchor="middle">app</text>
<rect class="c-green" x="188" y="372" width="118" height="48" rx="7" stroke-width="0.5"/>
<text class="th" x="247" y="392" text-anchor="middle">Pod</text>
<text class="ts" x="247" y="408" text-anchor="middle">worker</text>

<rect x="360" y="250" width="280" height="192" rx="12" fill="none" stroke="#475569" stroke-width="1" stroke-dasharray="5 4" opacity="0.55"/>
<text class="ts" x="373" y="267" text-anchor="start">Noeud worker 2</text>
<rect class="c-gray" x="375" y="278" width="120" height="34" rx="7" stroke-width="0.5"/>
<text class="ts" x="435" y="299" text-anchor="middle">kubelet</text>
<rect class="c-gray" x="508" y="278" width="118" height="34" rx="7" stroke-width="0.5"/>
<text class="ts" x="567" y="299" text-anchor="middle">kube-proxy</text>
<rect class="c-gray" x="375" y="326" width="251" height="30" rx="7" stroke-width="0.5"/>
<text class="ts" x="500" y="345" text-anchor="middle">container runtime (containerd)</text>
<rect class="c-green" x="375" y="372" width="120" height="48" rx="7" stroke-width="0.5"/>
<text class="th" x="435" y="392" text-anchor="middle">Pod</text>
<text class="ts" x="435" y="408" text-anchor="middle">app</text>
<rect class="c-green" x="508" y="372" width="118" height="48" rx="7" stroke-width="0.5"/>
<text class="th" x="567" y="392" text-anchor="middle">Pod</text>
<text class="ts" x="567" y="408" text-anchor="middle">worker</text>

<line x1="115" y1="276" x2="300" y2="141" stroke="#475569" stroke-width="1" stroke-dasharray="4 3" marker-start="url(#arrow)" marker-end="url(#arrow)"/>
<line x1="435" y1="276" x2="408" y2="141" stroke="#475569" stroke-width="1" stroke-dasharray="4 3" marker-start="url(#arrow)" marker-end="url(#arrow)"/>
<text class="ts" x="250" y="234" text-anchor="middle">chaque kubelet &lt;-&gt; API server</text>
</svg>
